<?xml version="1.0" standalone="no"?>
<!DOCTYPE svg PUBLIC "-//W3C//DTD SVG 20010904//EN"
 "http://www.w3.org/TR/2001/REC-SVG-20010904/DTD/svg10.dtd">
<svg version="1.0" xmlns="http://www.w3.org/2000/svg"
 width="512.000000pt" height="512.000000pt" viewBox="0 0 512.000000 512.000000"
 preserveAspectRatio="xMidYMid meet">

<g transform="translate(0.000000,512.000000) scale(0.100000,-0.100000)"
fill="#000000" stroke="none">
<path d="M3325 4070 c-11 -13 -25 -18 -39 -14 -33 8 -76 -30 -76 -68 0 -16 -9
-41 -20 -55 -25 -32 -25 -54 -2 -83 l19 -23 22 22 c15 15 31 21 45 19 19 -4
23 0 23 25 0 20 9 38 27 54 30 25 56 29 87 12 20 -10 20 -11 3 -30 -21 -23
-25 -98 -7 -117 7 -7 13 -26 13 -41 0 -16 9 -36 21 -47 15 -13 19 -26 15 -46
l-5 -28 159 0 c140 0 160 2 160 16 0 9 11 25 25 36 19 15 25 29 25 58 0 29 -6
43 -25 58 -18 15 -25 29 -25 56 0 23 -7 43 -20 56 -13 13 -33 20 -56 20 -27 0
-41 7 -57 26 -16 21 -26 25 -58 22 -26 -2 -39 1 -39 9 0 20 -52 55 -76 49 -14
-4 -28 1 -39 14 -11 12 -31 20 -50 20 -19 0 -39 -8 -50 -20z m82 -46 c-3 -3
-12 -4 -19 -1 -8 3 -5 6 6 6 11 1 17 -2 13 -5z m77 -43 c33 -37 12 -31 -24 6
-21 21 -27 32 -15 25 11 -5 29 -20 39 -31z m139 -53 c12 -7 28 -13 36 -14 47
-8 134 -164 91 -164 -11 0 -14 7 -25 55 -7 31 -80 109 -95 100 -13 -8 -62 14
-55 25 8 13 22 13 48 -2z m2 -82 c60 -26 74 -92 29 -145 -43 -52 -123 -40
-149 22 -23 56 5 117 60 130 11 3 21 5 23 6 1 0 18 -5 37 -13z"/>
<path d="M2585 3783 c-55 -14 -75 -83 -35 -123 18 -18 33 -20 188 -20 l169 0
94 -196 c52 -108 96 -200 97 -205 2 -5 -253 -9 -601 -9 l-605 0 -28 56 -29 56
-84 -6 c-47 -4 -86 -8 -88 -10 -2 -2 17 -39 42 -83 25 -45 45 -86 45 -93 0 -7
-46 -116 -101 -244 -56 -127 -108 -245 -115 -263 l-14 -31 -57 16 c-82 23
-286 22 -373 -2 -94 -25 -235 -97 -307 -156 -120 -98 -218 -249 -260 -400 -24
-91 -24 -309 0 -400 59 -213 214 -402 411 -500 124 -61 235 -83 376 -77 179 9
307 54 445 159 133 101 245 275 280 434 10 44 19 85 21 92 2 8 28 12 86 12
l83 0 0 80 0 80 -87 0 -88 0 0 28 c0 75 -65 242 -133 342 -41 59 -144 160
-201 196 -25 16 -46 33 -46 37 0 11 170 399 180 410 3 4 107 -174 230 -395
123 -222 230 -413 238 -425 l13 -22 47 30 c25 16 51 29 56 29 43 1 32 24 -200
440 -130 233 -238 430 -241 437 -4 11 86 13 486 13 323 0 491 -3 491 -10 0 -6
-79 -198 -175 -428 -96 -230 -175 -422 -175 -425 0 -4 6 -7 14 -7 7 0 39 -13
71 -29 l57 -29 15 37 c122 293 376 899 382 908 5 9 271 -529 271 -549 0 -3
-32 -30 -70 -59 -128 -97 -234 -260 -276 -424 -24 -93 -24 -274 0 -370 52
-212 203 -404 396 -504 117 -61 198 -82 330 -88 220 -9 401 56 558 202 276
255 333 655 141 983 -45 75 -178 208 -256 256 -181 109 -404 141 -608 89 l-71
-18 -77 160 c-42 88 -166 346 -276 574 -110 227 -206 421 -215 430 -14 13 -46
16 -209 18 -106 1 -201 -1 -212 -4z m-1205 -1314 c35 -5 66 -11 67 -13 2 -1
-39 -98 -90 -214 -83 -192 -95 -212 -120 -218 -69 -15 -127 -113 -112 -190 9
-52 77 -120 129 -129 53 -10 114 10 153 51 l32 34 222 0 222 0 -7 -40 c-24
-151 -142 -317 -287 -403 -100 -59 -185 -82 -309 -82 -171 0 -310 57 -428 176
-300 302 -212 798 174 981 111 52 227 68 354 47z m2584 -4 c281 -59 486 -313
486 -600 0 -258 -167 -488 -415 -571 -223 -74 -449 -20 -616 146 -125 125
-180 255 -180 430 0 177 55 305 185 435 l80 80 99 -205 c75 -157 97 -211 92
-230 -24 -95 -17 -146 28 -194 65 -69 163 -72 228 -7 70 70 72 167 4 235 -18
18 -50 38 -70 42 -37 9 -39 12 -136 214 -54 112 -97 206 -95 208 2 1 32 9 67
17 84 18 159 18 243 0z m-2271 -154 c34 -33 81 -90 104 -129 37 -63 83 -182
83 -218 0 -20 -442 -21 -459 -1 -8 10 12 63 81 220 105 235 88 224 191 128z
m-361 -375 c77 -58 4 -175 -87 -140 -46 18 -54 109 -12 139 26 18 76 19 99 1z
m2563 -11 c50 -49 15 -135 -55 -135 -41 0 -80 39 -80 80 0 41 39 80 80 80 19
0 40 -9 55 -25z"/>
<path d="M2513 1908 c-11 -13 -87 -121 -168 -240 l-146 -218 80 0 80 0 130
197 c85 128 131 206 131 223 0 56 -69 80 -107 38z"/>
<path d="M890 729 c264 -245 652 -460 1003 -554 838 -227 1689 -24 2338 557
l64 58 -1735 -1 -1735 0 65 -60z"/>
</g>
</svg>
